<?xml version="1.0" encoding="UTF-8"?>
<!DOCTYPE svg PUBLIC "-//W3C//DTD SVG 1.1//EN" "http://www.w3.org/Graphics/SVG/1.1/DTD/svg11.dtd">
<!-- Creator: CorelDRAW (Versão OEM) -->
<svg xmlns="http://www.w3.org/2000/svg" xml:space="preserve" width="204.98mm" height="127.444mm" version="1.1" style="shape-rendering:geometricPrecision; text-rendering:geometricPrecision; image-rendering:optimizeQuality; fill-rule:evenodd; clip-rule:evenodd"
viewBox="0 0 20483.75 12735.48"
 xmlns:xlink="http://www.w3.org/1999/xlink"
 xmlns:xodm="http://www.corel.com/coreldraw/odm/2003">
 <defs>
  <style type="text/css">
   <![CDATA[
    .fil0 {fill:#141414}
    .fil3 {fill:#383536}
    .fil2 {fill:#D68327}
    .fil1 {fill:#E68216}
    .fil4 {fill:#FEFEFE}
   ]]>
  </style>
 </defs>
 <g id="Camada_x0020_1">
  <metadata id="CorelCorpID_0Corel-Layer"/>
  <g id="_1757280917008">
   <path class="fil0" d="M4235.01 547.62c-182.69,83.55 -241.47,150.72 -469.64,31.57 -130.1,-67.93 -263.76,-188.09 -361.39,-268.26 -364.28,-299.14 -450.08,-232.36 -885.4,-35.38 16.3,365.18 517.93,674.8 207.86,894.53 -466.77,330.76 -924.49,-476.56 -1438.5,-160.11 -87.86,54.09 -254.38,233.81 -270.22,379.46 -27.01,248.39 463.1,460.16 604.73,666.61 67.24,98 164.4,356.72 0.04,474.79 -396.04,284.54 -667.54,87.4 -1052.53,70.79 -88.44,-3.82 -232.91,-11.95 -287.89,34.47 -145.16,122.55 -284.07,578.15 -225.47,875.11 22.13,112.16 88.31,123.28 287.62,211.85 324.88,144.36 664.75,227.85 838.89,458.75 164.5,218.12 185.68,686.88 -237.78,822.01 -352.83,112.59 -761.01,71.16 -898.59,380.67 -115.98,260.92 4.7,841.44 136.66,1038.34 294.21,438.95 1687.82,-224.7 1780.43,799.12 39.83,440.42 -247.13,641.35 -459.24,824.41 -228.63,197.3 -499.28,381.34 -277,834.66 198.16,404.15 403.63,541.44 539.01,753.44 376.56,23.77 537.36,-53.79 797.38,-213.04 230.88,-141.4 446.08,-274.55 785.52,-160.58 601.11,201.83 480.38,855.15 282.77,1413.29 -94.94,268.17 -164.45,562.56 41.2,764.56 133.75,131.38 418.61,306.8 614.29,405.26 612.24,308.06 700.48,-547.98 1056.58,-828.26 531.72,-418.52 951.18,202.07 986.42,746.48 19.78,305.36 -29.31,670.87 167.64,836.03 160.13,134.28 640.43,180.17 853.67,92.2 426.08,-175.8 86.43,-1204.15 621.67,-1399.02 531.68,-193.58 709.84,753.52 898.98,1077.98 911.61,55.91 746.87,-482.52 693.9,-1183.07 -11.43,-151.26 -8.66,-317.68 65.06,-424.12 64.4,-92.96 206.98,-172.21 368.58,-108.88 236.01,92.47 306.1,369.14 465.08,545.54 236.87,-27.16 417.94,-211.76 464.39,-434.71 56.47,-271.09 -84.49,-497.2 -176.51,-696.66 -225.58,-488.97 -11.42,-934.92 327.77,-625.11 97.28,88.87 169.54,128.05 352.17,119.98 110.11,-388.53 204.27,-491.43 -45.54,-852.46 -77.9,-112.57 -150.99,-206.21 -220.57,-335.06 -97.99,-181.43 -18.83,-289.4 -112.17,-440.99 -296.95,288.75 -217.54,993.19 -1187.05,1619.46 -1948.79,1258.86 -4432.83,-342.86 -5718.79,-1870.05 -725.86,-862.02 -1616.03,-2479.55 -1572.75,-4074.6 22.99,-847.2 351.6,-1604.16 763.89,-2065.86 842.01,-942.91 1622.03,-710.43 1904.61,-935.89 -47.3,-189.24 -240.77,-392.87 -363.92,-475.78 -191.18,-128.71 -462.72,-155.13 -728.07,-111.64 -4.58,175.04 101.11,343.31 82.18,528.2z"/>
   <path class="fil1" d="M3098.25 4361.6c111.54,-201.02 153.79,-687.96 254.39,-952.93 562.25,-1480.94 2655.25,-1699.75 4082.47,-531.38 782.03,640.18 646.85,584.04 1897.11,522.59 -1.52,-253.53 -407.81,-694.16 -590.6,-846.8 -822.63,-686.99 -1824.99,-1309.75 -3020.05,-1373.89 -1015.72,-54.52 -1639.11,369.19 -2066.48,864.26 -216.49,250.78 -405.9,551.72 -501.38,961.06 -78.24,335.42 -114.83,1009.51 -55.46,1357.1z"/>
   <polygon class="fil2" points="20267.58,12727.36 20342.66,12733.66 20483.68,12732.61 20483.75,3.63 20267.51,6.18 "/>
   <path class="fil3" d="M4934.23 6268.85l-7.26 96.57 547.93 -1.04 -1.84 -94.21c-312.9,-21.3 -216.41,-9.72 -120.24,-324.85l461.08 -3.67c70.15,38.05 127.21,223.08 107.47,312.11l-190.73 16.64 -7.94 95.34 1057.78 2.55 -7.52 -101.14 -176.06 -10.2c-63.2,-112.95 -36.14,-833.88 -31.96,-1009.27 69.02,174.33 150.16,367.56 225.17,554.8 123.09,307.22 224.18,758.93 333.36,468l401.87 -999.64 5.37 802.84c0,225.52 -24.46,172.97 -220.82,198.76l-4.06 87.22 1225.46 8.17 -1.57 -96.76 -192.69 -13.76c-58.61,-103.23 -34.01,-314.58 -34.01,-458.38 220.87,-33.41 498.47,33.43 660.25,-96.84 155.89,-125.52 156.04,-436.21 -24.96,-529.39 -228.41,-117.6 -1138.05,-83.49 -1455.46,-75.42 -100.5,187.29 -312.74,872.05 -410.68,976.85l-379.88 -977.7 -461.17 0.4 -1.27 95.52c277.42,28.94 207.26,-10.05 207.26,899.85 0,77.8 -2.74,110.09 -33.99,160.54 -207.81,42.62 -252.47,-7.97 -300.61,-133.34 -19.25,-50.16 -36.86,-98.72 -55.89,-147.88l-232.1 -601.87c-103.98,-273.03 -45.9,-275.07 -260.07,-272.93 -84.69,164.53 -174.77,442.51 -248.98,634.64 -180.39,467.04 -134.52,527.59 -371.25,537.48z"/>
   <path class="fil2" d="M7074.06 9169.22l-239.12 36.31c195.33,137.1 809.36,233.86 1092.89,253.74 873.74,61.25 1399.41,-137.28 2009.36,-689.35 184.38,-166.88 406.92,-455.63 435.64,-732.35 2.59,-24.99 5.38,-68.14 2.52,-92.53 -5.06,-43.12 3.83,4.63 -6.24,-32.68 -10.47,-38.84 -2.73,-18.55 -18.35,-40.02 -76.95,-32.35 -695.45,-19.68 -831.55,-15.43l-363.04 557.73c-135.93,206.38 -262.55,348.35 -464.11,481.85 -521.22,345.22 -928.82,271.44 -1618,272.71z"/>
   <path class="fil3" d="M12066.97 5192.64l201.39 18.3c30.51,140.68 29.2,897.05 0.73,1037.2l-198.2 24.25 -5.84 90.14 1178.6 5.48 0.54 -90.51c-82.4,-28.37 -135.81,17.75 -195.26,-44.27 -75.77,-75.68 -32.21,-772.65 -32.21,-930.46 80.72,46.31 593.63,815.81 732.87,1008.04 64.45,88.98 81.42,62.62 206.5,62.62l-0.73 -1041.93c11.41,-258.73 206.87,-10.7 194.78,-233.08l-550.1 -2.22c-14.7,157.7 10.89,75.29 210.24,116.54 37.93,146.56 20.26,680.8 16.72,873.08 -88.46,-58.53 -576.19,-813.24 -718.15,-985.75l-1040.58 -3.8 -1.31 96.38z"/>
   <path class="fil2" d="M4964.75 6555.5l-0.66 55.6c98.06,53.02 12044.77,-3.15 14563.31,15.23 161.39,1.18 196.8,26.51 208.95,-36.92 14.61,-76.28 -102.67,-50.76 -171.6,-49.62 -1109.34,18.43 -2370.21,0.41 -3484.31,0.41 -1467.25,0 -11036.73,-28.13 -11115.69,15.3z"/>
   <path class="fil3" d="M17993.16 5193.63l187.75 17.71c25.21,110.38 29.94,772.18 17.78,938.33 -10.68,145.85 -71.67,112.1 -200.21,120.26l-7.97 93.81 553.11 3.99 0.56 -90.24c-77.56,-26.3 -110.16,10.14 -184.49,-36.32 -65.75,-54.82 -38.12,-853.47 -30.66,-980.21 120.12,167.37 388.67,1100.92 475.58,1107.01 67.79,-16.85 52.32,-21.96 82.2,-101.48 21.15,-56.24 36.36,-91.92 58.05,-146.71 37.12,-93.78 72.92,-181.97 111.23,-277.91 53.74,-134.51 159.73,-459.93 231.07,-549.92 15.23,188.78 21.72,800.06 -11.29,957.28l-200.6 22.91 -6.45 90.46 611.91 5.77c17.24,-181.02 -2.42,-57.29 -192.25,-125.36 -27.14,-122.26 -28.46,-907.44 1.94,-1021.8 51.16,-19.36 125.43,-19.63 191.48,-31.34l2.11 -86.21 -437.7 -8.35 -397.42 977.01 -395.04 -976.53 -458.74 0.87 -1.95 96.97z"/>
   <path class="fil3" d="M16701.18 5191.62c245.17,30.41 211.4,-71.81 211.4,529.96 0,616.14 38.1,524 -208.1,549.92l-4.98 89.75 1201.99 7.03 3.62 -517.8c-127.18,0 -94.35,11.6 -103.54,91.56 -12.86,112.08 -12.61,242 -147.33,296.43 -99.99,40.39 -434.31,34.36 -557.58,24.47l-0.04 -508.33c345.95,-27.71 282.49,24.09 343.64,272.13l79.41 1.6 9.69 -620.78 -77.58 -1.84c-2.84,5.29 -5.53,7.32 -6.31,14.56 -0.79,7.3 -4.81,10.27 -5.81,13.63l-8.6 29.59c-4.01,18.25 -4.82,43.04 -8.56,63.84 -24.67,137.04 -124.16,131.14 -325.67,118.76l-0.23 -445.31c126.53,-9.28 416.02,-13.76 527.69,15.1 161.92,41.84 177.31,179.77 182.84,352.54l98.81 0.04 -0.6 -464.63 -1203 -7.64 -1.19 95.42z"/>
   <path class="fil3" d="M14053.11 6270.13l-6.4 93.36 547.48 1.08 -2.11 -94.68c-195.27,-11.73 -249.25,20.51 -171.29,-188.05 68.65,-183.67 28.04,-140.2 473.63,-140.19 88.96,0 83.49,42.57 114.89,129.79 22.01,61.15 47.69,105.04 31.67,183.06l-191.64 16.25 -7.08 92.93 601.72 -0.52 -1.78 -91.9c-200.77,-21.82 -175.94,-40.95 -240.81,-207.13 -46.4,-118.86 -83.82,-218.6 -129.06,-334.48l-190.77 -495.42c-55.04,-148.83 -19.07,-140.65 -208.07,-136.73 -78.78,152.07 -283.24,725.57 -372.05,956.22 -67.5,175.31 -42.51,201.05 -248.35,216.41z"/>
   <path class="fil3" d="M16395.49 6275.18c65.15,81.43 31.04,107.07 160.38,104.36 53.34,-241.9 -87.84,-532.84 100.41,-561.94 26.09,-4.04 87.73,-1.01 116.75,-1.06l0.19 -100.76c-107.41,0 -214.77,0.02 -322.13,0 -55.91,0 -111.46,-0.33 -167.34,-0.9l-107.79 6.25c-38.17,9.91 -20.92,3 -43.04,18.98l0.05 55.6c73.5,45.47 167.39,-7.69 225.43,59.71 94.69,109.97 -8.68,507.74 -434.2,427.62 -256.88,-48.36 -354.94,-290.06 -347.5,-580.46 6.96,-270.84 133.05,-521.17 393.28,-536.56 146.99,-8.7 269.83,55.56 333.89,128.43 158.63,180.47 50.48,260.17 202.82,270.03 49.59,-68.65 27.79,-416.07 19.95,-468.49 -144.99,2.41 -61.13,19.18 -149.67,108.8 -90.6,-46.36 -169.28,-125.12 -313.8,-141.64 -139.63,-15.95 -277.55,15.18 -382.49,73.43 -174.31,96.74 -312.42,310.77 -311.27,603.48 1.75,448.07 305.91,703.43 685.27,661.75 171.55,-18.85 225.49,-95.21 340.82,-126.63z"/>
   <path class="fil3" d="M11058.37 5841.04l-39.71 4.17 0.49 520.45c122.46,5.24 114.07,-14.95 148.78,-128.03 38.24,16.56 448.73,348.28 786.6,46.58 81.33,-72.62 150.05,-234.69 100.72,-391.52 -89.86,-285.7 -537.43,-246.83 -748.2,-345.75 -330.14,-154.95 35.6,-535.47 397.31,-323.48 62.79,36.79 99.22,71.62 136.87,142.34 37.35,70.18 39.96,145.4 69.59,197.83l86.12 2.02 8.09 -476.79c-146,-8.75 -71.01,10.65 -149.82,97.73 -136.6,-72.4 -201.25,-133.73 -406.91,-127.31 -476.22,14.86 -488.95,425.81 -352.62,569.47 178.04,187.62 659.47,150.02 770.28,304.64 224.55,313.31 -477.5,568.01 -692.78,82.1 -44.42,-100.27 -9.31,-161.87 -114.83,-174.45z"/>
   <path class="fil3" d="M9660.37 5190.63l178.42 22.43c109,502.14 -214.83,1194.57 496.94,1192.29 709.2,-2.27 385.97,-723.69 495.94,-1188.16 33.61,-9.86 58.62,-9.58 97.95,-16.9 68.15,-12.67 79.99,24.31 72.09,-103.89l-426.91 -2.18c-18.02,0.08 -143.56,-20.68 -114.73,71.4 35.93,51.98 -9.17,20.22 79.29,32.34 68.11,9.33 112.58,-16.3 140.11,67.98l8.07 623.18c-3.47,240.18 -62.35,381.82 -314.74,388.82 -270.67,7.49 -333.21,-114.54 -333.58,-370.72 -0.25,-174.43 -17.42,-547.4 17.34,-687.78 55.91,-19.03 130.81,-22.68 203.3,-22.72l1.79 -100.75 -600.33 1.22 -0.96 93.44z"/>
   <path class="fil4" d="M12472.75 5369.47c0,905.19 -72.59,899.11 216.56,898.55 194.47,-0.37 200.28,-1.98 200.28,-194.34l0 -685.67c0,-186.36 -12.16,-191.66 -200.24,-192.02 -181.67,-0.36 -216.6,-13.87 -216.6,173.48z"/>
   <path class="fil4" d="M7710.26 5388.01c0,164.23 -34.16,748.33 34.02,864.86 74,15.5 182.53,19.92 258.3,14.05 130.66,-10.11 116.21,-54.89 116.21,-174.71 0,-292.96 12.13,-587.3 -14.01,-879.23 -71.81,-14.76 -210.58,-24.5 -290.95,-14.71 -118.42,14.42 -103.57,75.05 -103.57,189.74z"/>
   <path class="fil4" d="M8303.05 5683.21c234.77,22.16 576.34,37.63 578.42,-239.58 2.11,-282.53 -332.98,-256.84 -578.63,-241.47l0.21 481.06z"/>
   <path class="fil4" d="M5396.94 5837.18l396.74 3.11c-10.72,-45.92 -154.91,-458.96 -202.16,-513.61l-194.58 510.5z"/>
   <path class="fil4" d="M14516.6 5835.34l396.75 5.18c-23.26,-91.78 -63.31,-179.88 -94.81,-264.9l-109.43 -247.21 -192.51 506.93z"/>
  </g>
 </g>
</svg>
