<?xml version="1.0" encoding="UTF-8"?>
<svg xmlns="http://www.w3.org/2000/svg" xml:space="preserve" viewBox="0 0 29700 21000" role="img" aria-labelledby="title desc" style="shape-rendering:geometricPrecision; text-rendering:geometricPrecision; image-rendering:optimizeQuality; fill-rule:evenodd; clip-rule:evenodd">
  <title id="title">Logo AMP Usinagem Industrial</title>
  <desc id="desc">Versão fiel do logo da AMP Usinagem Industrial.</desc>
  <defs>
    <style type="text/css"><![CDATA[
      .fil0 {fill:#141414}
      .fil2 {fill:#D68327}
      .fil1 {fill:#E68216}
      .fil4 {fill:#373435;fill-rule:nonzero}
      .fil3 {fill:#D68327;fill-rule:nonzero}
    ]]></style>
  </defs>
  <g id="Camada_x0020_1">
    <g id="_2327363097328">
      <g>
        <path class="fil0" d="M8377.86 5147.35c43.86,381.23 377.51,458.4 236.9,734.45 -251.38,276.75 -601.64,5.74 -840.04,-101.49 -361.9,-162.78 -636.68,46.96 -723.72,367.47 159.97,434.98 666.23,352.73 614.49,919.53 -448.61,402.15 -689.07,50.86 -1235.75,136.58 -175.21,194.58 -286.35,543.69 -200.55,848.06 372.84,263.9 1065.78,285.31 1069.3,814.13 6.17,925.69 -1502.96,-28.74 -1057.64,1486.3 86.26,293.43 176.41,350.66 511.02,350.1 484.27,-0.8 1122.51,-51.63 1145.03,615.29 17.42,515.77 -539.87,646 -697.09,984.31 -161.38,347.22 389.97,913.39 528.44,1081.34 661.72,68.37 792.37,-484.27 1333.03,-344.3 544.7,141.04 508.41,729.95 326.74,1189.3 -282.86,715.18 32.38,779.67 470.65,1055.06 582.97,366.34 664.11,-333.21 946.7,-624.52 452.11,-466.03 890.34,45.38 930.93,579.29 20.13,264.76 -38.02,589.48 139.66,748.8 127.12,114 576.12,174.86 776.18,79.56 353.45,-168.35 61.58,-1090.64 553.25,-1232.21 447.71,-128.91 616.65,671.86 767.15,957.02 1244.12,72.56 264.52,-1223.12 765.16,-1502.86 321.51,-142.23 495.12,268.22 636.82,477.06 312.8,-65.27 504.48,-339.94 388.4,-703.78 -80,-250.84 -351.88,-551.4 -137.56,-895.8 319.48,-154.88 209.49,176.01 597.3,155.55 128.7,-275.95 154.65,-495.99 -20.91,-734.39 -432.57,-587.45 -162.46,-442.07 -305.52,-710.04 -266.9,300.5 -181.42,850.75 -1018.61,1415.5 -1648.91,1112.31 -3895.31,-209.72 -5052.94,-1617.2 -1150.41,-1398.71 -2075.81,-3801.64 -723.29,-5411.94 629.9,-749.93 1377.28,-668.98 1688.11,-823.01 -194.4,-447.3 -503.31,-593.6 -973.64,-523.13 10.82,198.51 42.3,146.1 55.7,268.22 25.63,233.36 72.92,164.56 -78.98,250.53 -166.7,94.38 -376.54,-53.87 -492.45,-147.72 -368.09,-297.97 -416.53,-405.58 -922.27,-141.06z"/>
        <path class="fil1" d="M8887.38 8755.31c149.94,-248.54 68.55,-963.82 640.05,-1467.92 958.44,-845.36 2331.3,-551.73 3148.91,121.34 671.31,552.62 538.92,546.52 1709.1,485.03 -51.98,-738.36 -3314.85,-3188.73 -5007.05,-1193.32 -478.61,564.36 -548.34,1102.23 -491.01,2054.87z"/>
        <path class="fil2" d="M12162.91 13002.83c489.76,238.24 1489.04,334.82 2032.9,97.16 410.66,-179.47 1197.52,-738.44 1093.15,-1277.65l-742.11 -6.07c-310.55,418.61 -355.4,701.04 -850.71,993.42 -504.26,297.66 -1368.27,94.89 -1533.23,193.14z"/>
      </g>
      <polygon class="fil3" points="10533.12,10658.81 23540.32,10658.81 23540.32,10734.64 10533.12,10734.64"/>
      <path class="fil4" d="M22185.27 9599.79c0,-55.88 -7.77,-90.37 -23.07,-103.71 -15.59,-13.35 -47.27,-20.03 -95.39,-20.03l-65.06 0 0 -88.42 408.76 0 340.35 877.86 352.06 -877.86 390.4 0 0 88.42 -68.41 0c-48.66,0 -80.36,6.68 -95.66,20.03 -15.28,13.34 -22.78,47.83 -22.78,103.71l0 696.01c0,55.9 7.5,90.37 22.78,103.45 15.3,13.07 47,19.47 95.66,19.47l68.41 0 0 88.42 -542.24 0 0 -88.42 78.43 0c48.38,0 80.36,-6.4 95.63,-19.47 15.3,-13.08 22.81,-47.55 22.81,-103.45l0 -772.48 -393.73 983.82 -63.42 0 -393.75 -1007.44 0 796.1c0,55.9 7.53,90.37 22.8,103.45 15.3,13.07 47.28,19.47 95.66,19.47l75.09 0 0 88.42 -488.85 0 0 -88.42 65.06 0c48.12,0 79.8,-6.4 95.39,-19.47 15.3,-13.08 23.07,-47.55 23.07,-103.45l0 -696.01z"/>
      <path class="fil4" d="M20865.96 10507.14l0 -88.42 68.12 0c48.38,0 80.09,-6.4 95.66,-19.47 15.3,-13.08 23.07,-47.55 23.07,-103.72l0 -697.69c0,-55.33 -7.51,-89.26 -22.78,-102.32 -15.04,-13.08 -47.01,-19.47 -95.95,-19.47l-68.12 0 0 -88.42 1061.11 0 0 420.44 -86.76 0c0,-130.14 -21.69,-218 -64.79,-263.61 -43.37,-45.61 -129.03,-68.41 -257.48,-68.41l-303.38 0 0 398.75 115.39 0c78.7,0 128.48,-13.35 149.04,-40.04 20.58,-26.42 30.89,-85.08 30.89,-175.19l85.08 0 0 548.92 -85.08 0c-2.25,-104.83 -15.04,-171.84 -38.39,-201.33 -23.08,-29.2 -70.9,-43.92 -142.93,-43.92l-114 0 0 455.48 325.63 0c117.88,0 197.13,-24.2 237.18,-72.3 40.33,-48.12 61.45,-146.28 63.69,-294.76l85.91 0 0 455.48 -1061.11 0z"/>
      <path class="fil4" d="M20746.78 10518.53l-89.82 0 -60.62 -105.1c-59.22,42.55 -118.46,74.23 -177.97,95.37 -59.22,21.14 -119.02,31.71 -178.79,31.71 -166.58,0 -299.21,-53.67 -397.64,-161 -98.72,-107.07 -147.95,-251.67 -147.95,-432.97 0,-85.35 14.48,-166.29 43.12,-242.74 28.91,-76.47 69.5,-142.11 122.35,-196.33 48.1,-50.05 104.54,-88.15 169.33,-114 64.53,-26.13 134.87,-39.21 210.79,-39.21 65.61,0 126.79,11.39 182.97,34.48 56.17,23.07 110.4,58.67 162.4,107.05l56.44 -108.16 78.7 0 0 412.09 -88.42 0c-25.6,-110.95 -72.03,-197.15 -139.6,-259.17 -67.57,-61.99 -148.48,-92.86 -242.48,-92.86 -113.46,0 -204.1,45.04 -271.96,134.85 -67.85,90.11 -101.76,211.34 -101.76,364 0,156.01 34.19,277.25 102.61,364 68.39,86.48 162.93,129.85 284.17,129.85 95.95,0 173.8,-23.36 233.04,-69.79 59.5,-46.43 89.26,-107.6 89.26,-183.52l0 -70.08c0,-38.1 -7.51,-63.39 -22.81,-76.18 -15.03,-12.79 -50.33,-19.18 -105.67,-19.18l-90.1 0 0 -88.44 563.93 0 0 88.44 -64.51 0c-53.67,0 -87.04,5.83 -99.83,17.51 -12.79,11.66 -19.18,37.53 -19.18,77.85l0 401.53z"/>
      <path class="fil4" d="M18529.84 10507.14l0 -88.42 55.34 0c37.54,0 65.35,-6.4 83.97,-19.47 18.37,-13.08 35.04,-38.66 49.52,-76.74l360.09 -934.88 139.87 0 356.76 927.64c15.85,42.27 33.37,70.07 52.56,83.42 19.18,13.35 47.82,20.03 85.93,20.03l47.27 0 0 88.42 -530.84 0 0 -88.42 90.37 0c40.06,0 66.19,-3.35 78.43,-9.75 12.23,-6.66 18.34,-20.01 18.34,-40.03 0,-3.89 -1.11,-9.73 -3.33,-17.52 -1.96,-7.8 -5,-16.97 -8.91,-27.25l-70.07 -192.42 -426.55 0 -62.02 157.38c-9.17,23.92 -15.3,41.99 -18.34,54.23 -3.07,12.23 -4.47,22.24 -4.47,30.57 0,17.25 6.4,29.2 19.48,35.33 13.08,6.39 42.25,9.46 87.31,9.46l82.86 0 0 88.42 -483.57 0zm412.12 -463.83l356.76 0 -181.86 -478.84 -174.9 478.84z"/>
      <path class="fil4" d="M18450.43 10512.13l-141.8 0 -685.74 -972.4 0 756.07c0,55.9 7.53,90.37 22.8,103.45 15.3,13.07 47.01,19.47 95.39,19.47l83.69 0 0 88.42 -497.18 0 0 -88.42 65.06 0c48.12,0 79.8,-6.4 95.39,-19.47 15.3,-13.08 23.07,-47.55 23.07,-103.45l0 -696.01c0,-55.88 -7.77,-90.37 -23.07,-103.71 -15.59,-13.35 -47.27,-20.03 -95.39,-20.03l-65.06 0 0 -88.42 375.68 0 635.38 899.84 0 -687.68c0,-55.88 -7.5,-90.37 -22.8,-103.71 -15.3,-13.35 -46.99,-20.03 -95.37,-20.03l-88.71 0 0 -88.42 492.19 0 0 88.42 -55.34 0c-48.38,0 -80.09,6.68 -95.39,20.03 -15.27,13.34 -22.8,47.83 -22.8,103.71l0 912.34z"/>
      <path class="fil4" d="M16785.75 10507.14l0 -88.42 75.63 0c48.11,0 80.09,-6.4 95.1,-19.47 15.3,-13.08 22.8,-47.55 22.8,-103.45l0 -697.67c0,-55.33 -7.5,-89.55 -22.8,-102.61 -15.01,-13.08 -46.99,-19.47 -95.1,-19.47l-75.63 0 0 -88.42 552.25 0 0 88.42 -75.08 0c-48.94,0 -80.91,6.39 -95.94,19.47 -15.01,13.06 -22.52,47.28 -22.52,102.61l0 697.67c0,55.9 7.51,90.37 22.81,103.45 15.29,13.07 47.27,19.47 95.65,19.47l75.08 0 0 88.42 -552.25 0z"/>
      <path class="fil4" d="M15864.07 10507.14l0 -463.83 91.77 0c17.52,121.81 63.11,217.45 137.09,287.26 73.68,69.79 166.83,104.82 278.63,104.82 81.2,0 145.97,-19.18 194.91,-57.84 48.96,-38.66 73.43,-89.53 73.43,-152.37 0,-53.95 -18.37,-95.94 -55.34,-125.96 -36.99,-30.33 -104.56,-56.18 -202.99,-77.87l-138.49 -30.31c-149.88,-33.64 -249.98,-73.7 -300.32,-120.42 -50.33,-46.69 -75.36,-115.39 -75.36,-206.03 0,-94.55 36.44,-169.91 109.29,-226.09 72.57,-56.15 171.02,-84.24 295.03,-84.24 61.18,0 119.29,10.28 173.8,30.57 54.49,20.32 107.6,51.74 159.34,94l48.94 -100.95 77.85 0 0 423.51 -90.09 0c-14.19,-112.89 -52.84,-199.64 -116.24,-259.99 -63.12,-60.33 -147.1,-90.38 -251.93,-90.38 -82.58,0 -147.1,16.68 -193.27,50.05 -46.14,33.38 -69.23,80.1 -69.23,139.87 0,46.72 18.36,84.53 55.06,113.73 36.71,28.93 94,51.18 172.4,66.19l161.29 33.38c143.2,28.91 244.14,68.94 303.36,119.83 59.24,51.16 88.71,123.19 88.71,216.07 0,103.72 -38.37,187.97 -115.11,253.05 -77.03,64.79 -176.86,97.32 -300.05,97.32 -71.74,0 -137.91,-12.79 -198.26,-38.37 -60.62,-25.6 -118.46,-65.08 -174.06,-119.02l-54.78 124.02 -85.38 0z"/>
      <path class="fil4" d="M14840.06 9598.13c0,-55.33 -7.51,-89.55 -22.52,-102.61 -14.74,-13.08 -46.72,-19.47 -95.66,-19.47l-53.67 0 0 -88.42 535.58 0 0 88.42 -83.71 0c-48.39,0 -80.09,6.39 -95.37,19.47 -15.3,13.06 -22.81,47.28 -22.81,102.61l0 558.64c0,93.44 22.81,162.12 68.13,206.04 45.32,43.94 116.24,65.9 212.16,65.9 102.9,0 176.86,-25.58 222.18,-77.01 45.32,-51.18 68.12,-135.71 68.12,-253.61l0 -499.96c0,-55.33 -7.5,-89.55 -22.51,-102.61 -15.01,-13.08 -47.01,-19.47 -95.95,-19.47l-81.73 0 0 -88.42 480.5 0 0 88.42 -49.78 0c-49.23,0 -81.2,6.39 -96.21,19.47 -15.01,13.06 -22.52,47.28 -22.52,102.61l0 499.96c0,148.77 -35.32,259.72 -105.96,332.86 -70.34,73.12 -177.12,109.56 -319.76,109.56 -135.72,0 -239.43,-32.82 -311.18,-98.17 -71.45,-65.34 -107.33,-160.71 -107.33,-285.57l0 -558.64z"/>
      <path class="fil4" d="M13473.76 10295.8c0,55.9 7.79,90.37 23.07,103.45 15.58,13.07 47.56,19.47 95.65,19.47l83.16 0 0 88.42 -550.58 0 0 -88.42 68.12 0c48.38,0 80.09,-6.4 95.66,-19.47 15.3,-13.08 23.07,-47.55 23.07,-103.45l0 -697.67c0,-55.33 -7.51,-89.55 -22.79,-102.61 -15.03,-13.08 -47,-19.47 -95.94,-19.47l-68.12 0 0 -88.42 520.54 0c184.09,0 314.77,23.36 392.35,70.08 77.58,46.7 116.53,124.01 116.53,231.61 0,57.02 -11.41,106.79 -33.93,149.06 -22.54,42.55 -56.18,77.58 -101.23,105.38 -33.08,20.03 -76.74,34.49 -131.25,43.1 -54.22,8.62 -130.41,13.08 -228.84,13.08l-185.47 0 0 295.86zm0 -384.3l185.47 0c110.4,0 192.14,-17.78 245.25,-53.38 53.11,-35.59 79.8,-89.82 79.8,-163.22 0,-79.25 -25.02,-135.43 -74.78,-168.8 -50.05,-33.37 -136.83,-50.05 -260.84,-50.05l-174.9 0 0 435.45z"/>
      <path class="fil4" d="M11830.75 9599.79c0,-55.88 -7.78,-90.37 -23.08,-103.71 -15.58,-13.35 -47.27,-20.03 -95.39,-20.03l-65.06 0 0 -88.42 408.77 0 340.35 877.86 352.05 -877.86 390.4 0 0 88.42 -68.41 0c-48.65,0 -80.36,6.68 -95.66,20.03 -15.27,13.34 -22.78,47.83 -22.78,103.71l0 696.01c0,55.9 7.51,90.37 22.78,103.45 15.3,13.07 47.01,19.47 95.66,19.47l68.41 0 0 88.42 -542.23 0 0 -88.42 78.42 0c48.39,0 80.36,-6.4 95.64,-19.47 15.3,-13.08 22.8,-47.55 22.8,-103.45l0 -772.48 -393.73 983.82 -63.41 0 -393.76 -1007.44 0 796.1c0,55.9 7.53,90.37 22.81,103.45 15.3,13.07 47.27,19.47 95.65,19.47l75.1 0 0 88.42 -488.86 0 0 -88.42 65.06 0c48.12,0 79.81,-6.4 95.39,-19.47 15.3,-13.08 23.08,-47.55 23.08,-103.45l0 -696.01z"/>
      <path class="fil4" d="M10501.42 10507.14l0 -88.42 55.33 0c37.55,0 65.35,-6.4 83.98,-19.47 18.36,-13.08 35.04,-38.66 49.51,-76.74l360.09 -934.88 139.87 0 356.76 927.64c15.86,42.27 33.37,70.07 52.56,83.42 19.18,13.35 47.83,20.03 85.93,20.03l47.27 0 0 88.42 -530.84 0 0 -88.42 90.37 0c40.06,0 66.19,-3.35 78.43,-9.75 12.23,-6.66 18.34,-20.01 18.34,-40.03 0,-3.89 -1.11,-9.73 -3.33,-17.52 -1.95,-7.8 -5,-16.97 -8.9,-27.25l-70.08 -192.42 -426.55 0 -62.02 157.38c-9.17,23.92 -15.3,41.99 -18.34,54.23 -3.06,12.23 -4.46,22.24 -4.46,30.57 0,17.25 6.39,29.2 19.47,35.33 13.08,6.39 42.26,9.46 87.31,9.46l82.87 0 0 88.42 -483.57 0zm412.11 -463.83l356.76 0 -181.85 -478.84 -174.91 478.84z"/>
    </g>
  </g>
</svg>
